<svg width="512" height="512" viewBox="0 0 512 512" fill="none" xmlns="http://www.w3.org/2000/svg">
<path d="M512 244.803C442.113 235.188 366.619 228.733 285.519 225.436L268.246 320.673L378.795 324.216L358.758 457.548C355.533 458.139 351.848 458.434 347.703 458.434H334.575C276.998 458.434 221.032 452.085 166.679 439.387C150.557 399.225 142.496 337.062 142.496 252.899C142.496 189.113 149.175 140.387 162.533 106.721C186.025 101.701 242.912 94.4662 333.193 85.0163L474.834 69.9556C488.926 68.3494 501.315 66.8798 512 65.5467V0H0V512H512V244.803Z" fill="#4ED5FF"/>
</svg>
