<svg width="512" height="512" viewBox="0 0 512 512" fill="none" xmlns="http://www.w3.org/2000/svg">
<g clip-path="url(#clip0_13_193)">
<rect width="512" height="512" rx="256" fill="#404040"/>
<path d="M15.9283 314.494C12.1019 312.285 12.1019 308.704 15.9283 306.494L190.003 206L498.313 383.99L324.239 484.485C320.413 486.694 314.209 486.694 310.382 484.485L15.9283 314.494Z" fill="#086E8E"/>
<g filter="url(#filter0_d_13_193)">
<path d="M15.9283 304.494C12.1019 302.285 12.1019 298.704 15.9283 296.494L190.003 196L498.313 373.99L324.239 474.485C320.413 476.694 314.209 476.694 310.382 474.485L15.9283 304.494Z" fill="url(#paint0_linear_13_193)"/>
</g>
<path d="M198.661 -8C198.66 -13.5228 202.538 -15.7613 207.32 -12.9997L500.032 156.01C503.858 158.219 506.96 163.592 506.96 168.01L506.966 369.01L198.667 191L198.661 -8Z" fill="#086E8E"/>
<g filter="url(#filter1_d_13_193)">
<path d="M190 -3C190 -8.52284 193.877 -10.7613 198.66 -7.99972L491.371 161.01C495.198 163.219 498.299 168.592 498.3 173.01L498.306 374.01L190.007 196L190 -3Z" fill="url(#paint1_linear_13_193)"/>
<path d="M193.031 -1.2499C193.031 -4.83975 195.551 -6.29475 198.66 -4.49972L491.371 164.51C493.524 165.752 495.269 168.774 495.269 171.26L495.275 368.76L193.038 194.25L193.031 -1.2499Z" stroke="#4ED5FF" stroke-width="7"/>
</g>
<path d="M91.4676 275.394C87.6412 273.185 87.6412 269.603 91.4676 267.394L188.263 211.513C192.09 209.304 198.293 209.304 202.12 211.513L461.94 361.509C465.766 363.718 465.766 367.3 461.94 369.509L365.144 425.39C361.318 427.599 355.114 427.599 351.287 425.39L91.4676 275.394Z" fill="url(#paint2_linear_13_193)"/>
<path d="M146.623 367.739C143.275 365.806 143.275 362.672 146.623 360.739L179.879 341.54C183.227 339.608 188.655 339.608 192.003 341.54L246.215 372.837C249.563 374.77 249.563 377.904 246.215 379.837L212.96 399.036C209.612 400.969 204.183 400.969 200.835 399.036L146.623 367.739Z" fill="url(#paint3_linear_13_193)" stroke="#E5F1F5" stroke-width="2"/>
<path fill-rule="evenodd" clip-rule="evenodd" d="M198.19 215C197.234 214.448 195.683 214.448 194.726 215L184.732 220.77C183.776 221.322 183.776 222.217 184.732 222.769L197.621 230.21C198.578 230.763 200.129 230.763 201.086 230.21L211.08 224.441C212.036 223.889 212.036 222.993 211.08 222.441L198.19 215ZM180.87 225C179.913 224.448 178.362 224.448 177.406 225L167.412 230.77C166.455 231.322 166.455 232.217 167.412 232.769L180.301 240.21C181.257 240.763 182.808 240.763 183.765 240.21L193.759 234.441C194.716 233.889 194.716 232.993 193.759 232.441L180.87 225ZM212.047 225C213.003 224.448 214.554 224.448 215.511 225L228.4 232.441C229.357 232.993 229.357 233.889 228.4 234.441L218.406 240.21C217.449 240.763 215.898 240.763 214.942 240.21L202.053 232.769C201.096 232.217 201.096 231.322 202.053 230.77L212.047 225ZM198.19 235C197.234 234.448 195.683 234.448 194.726 235L184.732 240.77C183.776 241.322 183.776 242.217 184.732 242.769L197.621 250.21C198.578 250.763 200.129 250.763 201.086 250.21L211.08 244.441C212.036 243.889 212.036 242.993 211.08 242.441L198.19 235ZM229.367 235C230.324 234.448 231.875 234.448 232.831 235L245.721 242.441C246.677 242.993 246.677 243.889 245.721 244.441L235.727 250.21C234.77 250.763 233.219 250.763 232.262 250.21L219.373 242.769C218.417 242.217 218.417 241.322 219.373 240.77L229.367 235ZM215.511 245C214.554 244.448 213.003 244.448 212.047 245L202.053 250.77C201.096 251.322 201.096 252.217 202.053 252.769L214.942 260.21C215.899 260.763 217.45 260.763 218.406 260.21L228.4 254.441C229.357 253.889 229.357 252.993 228.4 252.441L215.511 245ZM246.688 245C247.644 244.448 249.195 244.448 250.152 245L263.041 252.441C263.998 252.993 263.998 253.889 263.041 254.441L253.047 260.21C252.091 260.763 250.54 260.763 249.583 260.21L236.694 252.769C235.737 252.217 235.737 251.322 236.694 250.77L246.688 245ZM232.832 255C231.875 254.448 230.324 254.448 229.367 255L219.373 260.77C218.417 261.322 218.417 262.217 219.373 262.769L232.263 270.21C233.219 270.763 234.77 270.763 235.727 270.21L245.721 264.441C246.677 263.889 246.677 262.993 245.721 262.441L232.832 255ZM264.008 255C264.965 254.448 266.516 254.448 267.473 255L280.362 262.441C281.318 262.993 281.318 263.889 280.362 264.441L270.368 270.21C269.411 270.763 267.86 270.763 266.904 270.21L254.014 262.769C253.058 262.217 253.058 261.322 254.014 260.77L264.008 255ZM250.152 265C249.196 264.448 247.645 264.448 246.688 265L236.694 270.77C235.737 271.322 235.737 272.217 236.694 272.769L249.583 280.21C250.54 280.763 252.091 280.763 253.047 280.21L263.041 274.441C263.998 273.889 263.998 272.993 263.041 272.441L250.152 265ZM281.329 265C282.286 264.448 283.837 264.448 284.793 265L297.682 272.441C298.639 272.993 298.639 273.889 297.682 274.441L287.688 280.21C286.732 280.763 285.181 280.763 284.224 280.21L271.335 272.769C270.378 272.217 270.378 271.322 271.335 270.77L281.329 265ZM267.473 275C266.516 274.448 264.965 274.448 264.008 275L254.014 280.77C253.058 281.322 253.058 282.217 254.014 282.769L266.904 290.21C267.86 290.763 269.411 290.763 270.368 290.21L280.362 284.441C281.318 283.889 281.318 282.993 280.362 282.441L267.473 275ZM160.085 235C161.042 234.448 162.593 234.448 163.549 235L176.438 242.441L176.47 242.46L185.099 247.441C186.055 247.993 186.055 248.889 185.099 249.441L175.105 255.21C174.148 255.763 172.597 255.763 171.641 255.21L158.751 247.769C158.741 247.763 158.73 247.757 158.719 247.751L150.091 242.769C149.135 242.217 149.135 241.322 150.091 240.77L160.085 235ZM186.066 250C187.023 249.448 188.574 249.448 189.53 250L202.419 257.441C203.376 257.993 203.376 258.889 202.419 259.441L192.425 265.21C191.469 265.763 189.918 265.763 188.961 265.21L176.072 257.769C175.115 257.217 175.115 256.322 176.072 255.77L186.066 250ZM206.851 260C205.894 259.448 204.343 259.448 203.387 260L193.393 265.77C192.436 266.322 192.436 267.217 193.393 267.769L206.282 275.21C207.238 275.763 208.789 275.763 209.746 275.21L219.74 269.441C220.696 268.889 220.696 267.993 219.74 267.441L206.851 260ZM220.707 270C221.664 269.448 223.215 269.448 224.171 270L237.06 277.441C238.017 277.993 238.017 278.889 237.06 279.441L227.066 285.21C226.11 285.763 224.559 285.763 223.602 285.21L210.713 277.769C209.757 277.217 209.757 276.322 210.713 275.77L220.707 270ZM241.492 280C240.535 279.448 238.984 279.448 238.028 280L228.034 285.77C227.077 286.322 227.077 287.217 228.034 287.769L240.923 295.21C241.879 295.763 243.43 295.763 244.387 295.21L254.381 289.441C255.338 288.889 255.338 287.993 254.381 287.441L241.492 280ZM142.765 245C143.721 244.448 145.272 244.448 146.229 245L159.118 252.441C160.075 252.993 160.075 253.889 159.118 254.441L149.124 260.21C148.167 260.763 146.616 260.763 145.66 260.21L132.771 252.769C131.814 252.217 131.814 251.322 132.771 250.77L142.765 245ZM163.549 255C162.593 254.448 161.042 254.448 160.085 255L150.091 260.77C149.135 261.322 149.135 262.217 150.091 262.769L162.98 270.21C163.937 270.763 165.488 270.763 166.444 270.21L176.438 264.441C177.395 263.889 177.395 262.993 176.438 262.441L163.549 255ZM177.406 265C178.362 264.448 179.913 264.448 180.87 265L193.759 272.441C194.716 272.993 194.716 273.889 193.759 274.441L183.765 280.21C182.808 280.763 181.257 280.763 180.301 280.21L167.412 272.769C166.455 272.217 166.455 271.322 167.412 270.77L177.406 265ZM198.19 275C197.234 274.448 195.683 274.448 194.726 275L184.732 280.77C183.776 281.322 183.776 282.217 184.732 282.769L197.621 290.21C198.578 290.763 200.129 290.763 201.086 290.21L211.08 284.441C212.036 283.889 212.036 282.993 211.08 282.441L198.19 275ZM212.047 285C213.003 284.448 214.554 284.448 215.511 285L228.4 292.441C229.357 292.993 229.357 293.889 228.4 294.441L218.406 300.21C217.45 300.763 215.899 300.763 214.942 300.21L202.053 292.769C201.096 292.217 201.096 291.322 202.053 290.77L212.047 285ZM232.832 295C231.875 294.448 230.324 294.448 229.367 295L219.373 300.77C218.417 301.322 218.417 302.217 219.373 302.769L232.263 310.21C233.219 310.763 234.77 310.763 235.727 310.21L245.721 304.441C246.677 303.889 246.677 302.993 245.721 302.441L232.832 295ZM125.444 255C126.401 254.448 127.952 254.448 128.908 255L141.797 262.441C141.808 262.447 141.819 262.454 141.83 262.46L150.458 267.441C151.414 267.993 151.414 268.889 150.458 269.441L140.464 275.21C139.507 275.763 137.956 275.763 136.999 275.21L124.11 267.769L124.078 267.751L115.45 262.769C114.493 262.217 114.493 261.322 115.45 260.77L125.444 255ZM151.425 270C152.381 269.448 153.932 269.448 154.889 270L167.778 277.441C168.735 277.993 168.735 278.889 167.778 279.441L157.784 285.21C156.828 285.763 155.277 285.763 154.32 285.21L141.431 277.769C140.474 277.217 140.474 276.322 141.431 275.77L151.425 270ZM172.21 280C171.253 279.448 169.702 279.448 168.745 280L158.751 285.77C157.795 286.322 157.795 287.217 158.751 287.769L171.641 295.21C172.597 295.763 174.148 295.763 175.105 295.21L185.099 289.441C186.055 288.889 186.055 287.993 185.099 287.441L172.21 280ZM186.066 290C187.023 289.448 188.574 289.448 189.53 290L202.419 297.441C203.376 297.993 203.376 298.889 202.419 299.441L192.425 305.21C191.469 305.763 189.918 305.763 188.961 305.21L176.072 297.769C175.115 297.217 175.115 296.322 176.072 295.77L186.066 290ZM206.851 300C205.894 299.448 204.343 299.448 203.387 300L193.392 305.77C192.436 306.322 192.436 307.217 193.392 307.769L206.282 315.21C207.238 315.763 208.789 315.763 209.746 315.21L219.74 309.441C220.696 308.889 220.696 307.993 219.74 307.441L206.851 300ZM220.707 310C221.664 309.448 223.215 309.448 224.171 310L237.06 317.441C238.017 317.993 238.017 318.889 237.06 319.441L227.066 325.21C226.11 325.763 224.559 325.763 223.602 325.21L210.713 317.769C209.756 317.217 209.756 316.322 210.713 315.77L220.707 310ZM111.588 265C110.631 264.448 109.08 264.448 108.124 265L98.1296 270.77C97.173 271.322 97.173 272.217 98.1296 272.769L111.019 280.21C111.975 280.763 113.526 280.763 114.483 280.21L124.477 274.441C125.433 273.889 125.433 272.993 124.477 272.441L111.588 265ZM125.444 275C126.401 274.448 127.952 274.448 128.908 275L141.797 282.441C142.754 282.993 142.754 283.889 141.797 284.441L131.803 290.21C130.847 290.763 129.296 290.763 128.339 290.21L115.45 282.769C114.494 282.217 114.494 281.322 115.45 280.77L125.444 275ZM146.229 285C145.272 284.448 143.721 284.448 142.765 285L132.771 290.77C131.814 291.322 131.814 292.217 132.771 292.769L145.66 300.21C146.616 300.763 148.167 300.763 149.124 300.21L159.118 294.441C160.075 293.889 160.075 292.993 159.118 292.441L146.229 285ZM160.085 295C161.042 294.448 162.593 294.448 163.549 295L176.439 302.441C177.395 302.993 177.395 303.889 176.439 304.441L166.445 310.21C165.488 310.763 163.937 310.763 162.98 310.21L150.091 302.769C149.135 302.217 149.135 301.322 150.091 300.77L160.085 295ZM180.884 304.992C179.928 304.439 178.377 304.439 177.42 304.992L167.398 310.778C166.441 311.33 166.441 312.225 167.398 312.778L284.182 380.198C285.139 380.751 286.69 380.751 287.646 380.198L297.669 374.412C298.625 373.86 298.625 372.965 297.669 372.412L180.884 304.992ZM298.649 275C299.606 274.448 301.157 274.448 302.114 275L315.003 282.441C315.959 282.993 315.959 283.889 315.003 284.441L305.009 290.21C304.052 290.763 302.501 290.763 301.545 290.21L288.655 282.769C287.699 282.217 287.699 281.322 288.655 280.77L298.649 275ZM284.793 285C283.837 284.448 282.286 284.448 281.329 285L271.335 290.77C270.378 291.322 270.378 292.217 271.335 292.769L284.224 300.21C285.181 300.763 286.732 300.763 287.688 300.21L297.682 294.441C298.639 293.889 298.639 292.993 297.682 292.441L284.793 285ZM255.348 290C256.305 289.448 257.856 289.448 258.812 290L271.702 297.441C272.658 297.993 272.658 298.889 271.702 299.441L261.708 305.21C260.751 305.763 259.2 305.763 258.243 305.21L245.354 297.769C244.398 297.217 244.398 296.322 245.354 295.77L255.348 290ZM250.152 305C249.195 304.448 247.645 304.448 246.688 305L236.694 310.77C235.737 311.322 235.737 312.217 236.694 312.769L249.583 320.21C250.54 320.763 252.091 320.763 253.047 320.21L263.041 314.441C263.998 313.889 263.998 312.993 263.041 312.441L250.152 305ZM238.028 320C238.984 319.448 240.535 319.448 241.492 320L254.381 327.441C255.338 327.993 255.338 328.889 254.381 329.441L244.387 335.21C243.43 335.763 241.879 335.763 240.923 335.21L228.034 327.769C227.077 327.217 227.077 326.322 228.034 325.77L238.028 320ZM319.434 285C318.478 284.448 316.927 284.448 315.97 285L305.976 290.77C305.019 291.322 305.019 292.217 305.976 292.769L318.865 300.21C319.822 300.763 321.373 300.763 322.329 300.21L332.323 294.441C333.28 293.889 333.28 292.993 332.323 292.441L319.434 285ZM298.649 295C299.606 294.448 301.157 294.448 302.114 295L315.003 302.441C315.959 302.993 315.959 303.889 315.003 304.441L305.009 310.21C304.052 310.763 302.501 310.763 301.545 310.21L288.655 302.769C287.699 302.217 287.699 301.322 288.655 300.77L298.649 295ZM276.133 300C275.176 299.448 273.625 299.448 272.669 300L262.675 305.77C261.718 306.322 261.718 307.217 262.675 307.769L275.564 315.21C276.52 315.763 278.071 315.763 279.028 315.21L289.022 309.441C289.979 308.889 289.979 307.993 289.022 307.441L276.133 300ZM264.008 315C264.965 314.448 266.516 314.448 267.473 315L280.362 322.441C281.318 322.993 281.318 323.889 280.362 324.441L270.368 330.21C269.411 330.763 267.86 330.763 266.903 330.21L254.014 322.769C253.058 322.217 253.058 321.322 254.014 320.77L264.008 315ZM258.812 330C257.856 329.448 256.305 329.448 255.348 330L245.354 335.77C244.397 336.322 244.397 337.217 245.354 337.769L258.243 345.21C259.2 345.763 260.751 345.763 261.707 345.21L271.701 339.441C272.658 338.889 272.658 337.993 271.701 337.441L258.812 330ZM333.291 295C334.247 294.448 335.798 294.448 336.755 295L349.644 302.441C350.6 302.993 350.6 303.889 349.644 304.441L339.65 310.21C338.693 310.763 337.142 310.763 336.186 310.21L323.297 302.769C322.34 302.217 322.34 301.322 323.297 300.77L333.291 295ZM319.434 305C318.478 304.448 316.927 304.448 315.97 305L305.976 310.77C305.019 311.322 305.019 312.217 305.976 312.769L318.865 320.21C319.822 320.763 321.373 320.763 322.329 320.21L332.323 314.441C333.28 313.889 333.28 312.993 332.323 312.441L319.434 305ZM289.989 310C290.946 309.448 292.497 309.448 293.453 310L306.343 317.441C307.299 317.993 307.299 318.889 306.343 319.441L296.348 325.21C295.392 325.763 293.841 325.763 292.884 325.21L279.995 317.769C279.039 317.217 279.039 316.322 279.995 315.77L289.989 310ZM284.793 325C283.836 324.448 282.286 324.448 281.329 325L271.335 330.77C270.378 331.322 270.378 332.217 271.335 332.769L284.224 340.21C285.181 340.763 286.732 340.763 287.688 340.21L297.682 334.441C298.639 333.889 298.639 332.993 297.682 332.441L284.793 325ZM272.669 340C273.625 339.448 275.176 339.448 276.133 340L289.022 347.441C289.979 347.993 289.979 348.889 289.022 349.441L279.028 355.21C278.071 355.763 276.52 355.763 275.564 355.21L262.675 347.769C261.718 347.217 261.718 346.322 262.675 345.77L272.669 340ZM354.075 305C353.119 304.448 351.568 304.448 350.611 305L340.617 310.77C339.661 311.322 339.661 312.217 340.617 312.769L353.506 320.21C354.463 320.763 356.014 320.763 356.97 320.21L366.964 314.441C367.921 313.889 367.921 312.993 366.964 312.441L354.075 305ZM333.291 315C334.247 314.448 335.798 314.448 336.755 315L349.644 322.441C350.6 322.993 350.6 323.889 349.644 324.441L339.65 330.21C338.693 330.763 337.142 330.763 336.186 330.21L323.297 322.769C322.34 322.217 322.34 321.322 323.297 320.77L333.291 315ZM310.774 320C309.817 319.448 308.266 319.448 307.31 320L297.316 325.77C296.359 326.322 296.359 327.217 297.316 327.769L310.205 335.21C311.161 335.763 312.712 335.763 313.669 335.21L323.663 329.441C324.62 328.889 324.62 327.993 323.663 327.441L310.774 320ZM298.649 335C299.606 334.448 301.157 334.448 302.114 335L315.003 342.441C315.959 342.993 315.959 343.889 315.003 344.441L305.009 350.21C304.052 350.763 302.501 350.763 301.545 350.21L288.655 342.769C287.699 342.217 287.699 341.322 288.655 340.77L298.649 335ZM293.453 350C292.497 349.448 290.946 349.448 289.989 350L279.995 355.77C279.039 356.322 279.039 357.217 279.995 357.769L292.884 365.21C293.841 365.763 295.392 365.763 296.348 365.21L306.342 359.441C307.299 358.889 307.299 357.993 306.342 357.441L293.453 350ZM367.932 315C368.888 314.448 370.439 314.448 371.396 315L384.285 322.441C385.242 322.993 385.242 323.889 384.285 324.441L374.291 330.21C373.334 330.763 371.783 330.763 370.827 330.21L357.938 322.769C356.981 322.217 356.981 321.322 357.938 320.77L367.932 315ZM354.075 325C353.119 324.448 351.568 324.448 350.611 325L340.617 330.77C339.661 331.322 339.661 332.217 340.617 332.769L353.506 340.21C354.463 340.763 356.014 340.763 356.97 340.21L366.964 334.441C367.921 333.889 367.921 332.993 366.964 332.441L354.075 325ZM324.63 330C325.587 329.448 327.138 329.448 328.094 330L340.984 337.441C341.94 337.993 341.94 338.889 340.984 339.441L330.99 345.21C330.033 345.763 328.482 345.763 327.525 345.21L314.636 337.769C313.68 337.217 313.68 336.322 314.636 335.77L324.63 330ZM319.434 345C318.478 344.448 316.927 344.448 315.97 345L305.976 350.77C305.019 351.322 305.019 352.217 305.976 352.769L318.865 360.21C319.822 360.763 321.373 360.763 322.329 360.21L332.323 354.441C333.28 353.889 333.28 352.993 332.323 352.441L319.434 345ZM307.31 360C308.266 359.448 309.817 359.448 310.774 360L323.663 367.441C324.62 367.993 324.62 368.889 323.663 369.441L313.669 375.21C312.712 375.763 311.161 375.763 310.205 375.21L297.316 367.769C296.359 367.217 296.359 366.322 297.316 365.77L307.31 360ZM388.716 325C387.76 324.448 386.209 324.448 385.252 325L375.258 330.77C374.302 331.322 374.302 332.217 375.258 332.769L388.147 340.21C389.104 340.763 390.655 340.763 391.612 340.21L401.606 334.441C402.562 333.889 402.562 332.993 401.606 332.441L388.716 325ZM367.932 335C368.888 334.448 370.439 334.448 371.396 335L384.285 342.441C385.242 342.993 385.242 343.889 384.285 344.441L374.291 350.21C373.334 350.763 371.783 350.763 370.827 350.21L357.938 342.769C356.981 342.217 356.981 341.322 357.938 340.77L367.932 335ZM345.415 340C344.458 339.448 342.907 339.448 341.951 340L331.957 345.77C331 346.322 331 347.217 331.957 347.769L344.846 355.21C345.803 355.763 347.354 355.763 348.31 355.21L358.304 349.441C359.261 348.889 359.261 347.993 358.304 347.441L345.415 340ZM333.291 355C334.247 354.448 335.798 354.448 336.755 355L349.644 362.441C350.6 362.993 350.6 363.889 349.644 364.441L339.65 370.21C338.693 370.763 337.142 370.763 336.186 370.21L323.297 362.769C322.34 362.217 322.34 361.322 323.297 360.77L333.291 355ZM328.094 370C327.138 369.448 325.587 369.448 324.63 370L314.636 375.77C313.68 376.322 313.68 377.217 314.636 377.769L327.525 385.21C328.482 385.763 330.033 385.763 330.99 385.21L340.984 379.441C341.94 378.889 341.94 377.993 340.984 377.441L328.094 370ZM298.65 375C299.606 374.448 301.157 374.448 302.114 375L315.003 382.441C315.96 382.993 315.96 383.889 315.003 384.441L305.009 390.21C304.052 390.763 302.501 390.763 301.545 390.21L288.656 382.769C287.699 382.217 287.699 381.322 288.656 380.77L298.65 375ZM406.037 335C405.08 334.448 403.529 334.448 402.573 335L392.579 340.77C391.622 341.322 391.622 342.217 392.579 342.769L405.468 350.21C406.425 350.763 407.975 350.763 408.932 350.21L418.926 344.441C419.883 343.889 419.883 342.993 418.926 342.441L406.037 335ZM385.252 345C386.209 344.448 387.76 344.448 388.716 345L401.606 352.441C402.562 352.993 402.562 353.889 401.606 354.441L391.612 360.21C390.655 360.763 389.104 360.763 388.147 360.21L375.258 352.769C374.302 352.217 374.302 351.322 375.258 350.77L385.252 345ZM362.736 350C361.779 349.448 360.228 349.448 359.271 350L349.277 355.77C348.321 356.322 348.321 357.217 349.277 357.769L362.167 365.21C363.123 365.763 364.674 365.763 365.631 365.21L375.625 359.441C376.581 358.889 376.581 357.993 375.625 357.441L362.736 350ZM350.611 365C351.568 364.448 353.119 364.448 354.075 365L366.964 372.441C367.921 372.993 367.921 373.889 366.964 374.441L356.97 380.21C356.014 380.763 354.463 380.763 353.506 380.21L340.617 372.769C339.661 372.217 339.661 371.322 340.617 370.77L350.611 365ZM345.415 380C344.458 379.448 342.907 379.448 341.951 380L331.957 385.77C331 386.322 331 387.217 331.957 387.769L344.846 395.21C345.803 395.763 347.354 395.763 348.31 395.21L358.304 389.441C359.261 388.889 359.261 387.993 358.304 387.441L345.415 380ZM315.97 385C316.927 384.448 318.478 384.448 319.434 385L332.324 392.441C333.28 392.993 333.28 393.889 332.324 394.441L322.33 400.21C321.373 400.763 319.822 400.763 318.865 400.21L305.976 392.769C305.02 392.217 305.02 391.322 305.976 390.77L315.97 385ZM423.358 345C422.401 344.448 420.85 344.448 419.893 345L409.899 350.77C408.943 351.322 408.943 352.217 409.899 352.769L422.788 360.21C423.745 360.763 425.296 360.763 426.253 360.21L436.247 354.441C437.203 353.889 437.203 352.993 436.247 352.441L423.358 345ZM393.913 370C394.869 369.448 396.42 369.448 397.377 370L410.266 377.441C410.623 377.647 410.847 377.901 410.937 378.167L418.634 382.611C419.59 383.163 419.59 384.058 418.634 384.61L391.612 400.21C390.655 400.763 389.104 400.763 388.147 400.21L375.258 392.769C374.302 392.217 374.302 391.322 375.258 390.77L390.848 381.77L383.919 377.769C382.962 377.217 382.962 376.322 383.919 375.77L393.913 370ZM380.056 360C379.1 359.448 377.549 359.448 376.592 360L366.598 365.77C365.641 366.322 365.641 367.217 366.598 367.769L379.487 375.21C380.444 375.763 381.995 375.763 382.951 375.21L392.945 369.441C393.902 368.889 393.902 367.993 392.945 367.441L380.056 360ZM367.932 375C368.888 374.448 370.439 374.448 371.396 375L384.285 382.441C385.242 382.993 385.242 383.889 384.285 384.441L374.291 390.21C373.334 390.763 371.783 390.763 370.827 390.21L357.938 382.769C356.981 382.217 356.981 381.322 357.938 380.77L367.932 375ZM362.736 390C361.779 389.448 360.228 389.448 359.271 390L349.277 395.77C348.321 396.322 348.321 397.217 349.277 397.769L357.905 402.75C357.916 402.757 357.927 402.763 357.938 402.769L362.167 405.21L370.827 410.21C371.783 410.763 373.334 410.763 374.291 410.21L384.285 404.441C385.242 403.889 385.242 402.993 384.285 402.441L375.657 397.46L375.635 397.447L375.625 397.441L371.396 395L362.736 390ZM333.291 395C334.247 394.448 335.798 394.448 336.755 395L349.644 402.441C350.601 402.993 350.601 403.889 349.644 404.441L339.65 410.21C338.693 410.763 337.143 410.763 336.186 410.21L323.297 402.769C322.34 402.217 322.34 401.322 323.297 400.77L333.291 395ZM440.678 355C439.721 354.448 438.171 354.448 437.214 355L427.22 360.77C426.263 361.322 426.263 362.217 427.22 362.769L440.109 370.21C441.066 370.763 442.617 370.763 443.573 370.21L453.567 364.441C454.524 363.889 454.524 362.993 453.567 362.441L440.678 355ZM427.586 367.441L423.357 365L418.965 362.464C418.952 362.456 418.939 362.449 418.926 362.441L414.697 360L406.037 355C405.08 354.448 403.529 354.448 402.573 355L392.579 360.77C391.622 361.322 391.622 362.217 392.579 362.769L401.206 367.75C401.217 367.757 401.228 367.763 401.239 367.769L405.468 370.21L409.867 372.75C409.878 372.757 409.888 372.763 409.899 372.769L414.128 375.21L422.788 380.21C423.745 380.763 425.296 380.763 426.253 380.21L436.247 374.441C437.203 373.889 437.203 372.993 436.247 372.441L427.618 367.46C427.608 367.453 427.597 367.447 427.586 367.441ZM354.076 405C353.119 404.448 351.568 404.448 350.611 405L340.617 410.77C339.661 411.322 339.661 412.217 340.617 412.769L353.507 420.21C354.463 420.763 356.014 420.763 356.971 420.21L366.965 414.441C367.921 413.889 367.921 412.993 366.965 412.441L354.076 405Z" fill="url(#paint4_linear_13_193)"/>
<path d="M151.294 358.098C151.268 358.082 151.268 358.058 151.294 358.043C151.32 358.028 151.363 358.028 151.389 358.043L217.63 396.284C217.657 396.3 217.657 396.324 217.63 396.339C217.604 396.355 217.562 396.355 217.535 396.339L151.294 358.098Z" fill="url(#paint5_linear_13_193)" stroke="#E5F1F5" stroke-width="1.0549"/>
<path d="M174.133 383.436L173.889 383.295L174.133 383.436Z" fill="url(#paint6_linear_13_193)" stroke="#E5F1F5" stroke-width="0.718357"/>
<g filter="url(#filter2_d_13_193)">
<path d="M285.519 225.436C379.946 229.275 466.773 237.396 546 249.799L530.5 518.234L492.107 550.127C457.561 553.376 423.014 555 388.468 555C354.382 555 318.914 553.523 282.064 550.57C245.215 547.913 210.899 544.517 179.116 540.382C114.629 532.114 73.4248 546.879 55 540.382C37.0358 533.885 -3.52029 536.52 -10.8902 531.5C-17.7995 526.184 -25.8604 487.926 -29.5453 477C-33.2303 465.778 -6.74463 452.085 -10.8902 436.729C-15.0358 421.078 -18.7208 404.097 -21.9451 385.788C-29.315 343.854 -33 310.042 -33 284.35C-33 258.362 -32.7697 238.429 -32.3091 224.55C-31.8484 210.375 -30.9272 196.495 -29.5453 182.911C-24.9391 128.279 -19.4117 94.6138 -12.963 81.9156C-6.51432 69.2173 -32.5274 -21.2079 -27 -28C-21.4726 -35.0874 15.8663 -20.161 26 -24C65.1527 -38.4701 139.502 6.31654 244.063 -10.2207L316.611 -21.2948C379.716 -30.7447 478.45 -44.4798 530.5 -49.5L525.963 63.7541C512.605 65.5259 495.562 67.5931 474.834 69.9556L333.193 85.0163C242.912 94.4662 186.025 101.701 162.533 106.721C149.175 140.387 142.496 189.113 142.496 252.899C142.496 337.062 150.557 399.225 166.679 439.387C221.032 452.085 276.998 458.434 334.575 458.434H347.703C351.848 458.434 355.533 458.139 358.758 457.548L378.795 324.216L268.246 320.673L285.519 225.436Z" fill="#4ED5FF"/>
</g>
</g>
<defs>
<filter id="filter0_d_13_193" x="-2.94141" y="180" width="517.255" height="312.141" filterUnits="userSpaceOnUse" color-interpolation-filters="sRGB">
<feFlood flood-opacity="0" result="BackgroundImageFix"/>
<feColorMatrix in="SourceAlpha" type="matrix" values="0 0 0 0 0 0 0 0 0 0 0 0 0 0 0 0 0 0 127 0" result="hardAlpha"/>
<feOffset/>
<feGaussianBlur stdDeviation="8"/>
<feComposite in2="hardAlpha" operator="out"/>
<feColorMatrix type="matrix" values="0 0 0 0 0 0 0 0 0 0 0 0 0 0 0 0 0 0 0.2 0"/>
<feBlend mode="normal" in2="BackgroundImageFix" result="effect1_dropShadow_13_193"/>
<feBlend mode="normal" in="SourceGraphic" in2="effect1_dropShadow_13_193" result="shape"/>
</filter>
<filter id="filter1_d_13_193" x="174" y="-25.1826" width="340.306" height="415.192" filterUnits="userSpaceOnUse" color-interpolation-filters="sRGB">
<feFlood flood-opacity="0" result="BackgroundImageFix"/>
<feColorMatrix in="SourceAlpha" type="matrix" values="0 0 0 0 0 0 0 0 0 0 0 0 0 0 0 0 0 0 127 0" result="hardAlpha"/>
<feOffset/>
<feGaussianBlur stdDeviation="8"/>
<feComposite in2="hardAlpha" operator="out"/>
<feColorMatrix type="matrix" values="0 0 0 0 0 0 0 0 0 0 0 0 0 0 0 0 0 0 0.2 0"/>
<feBlend mode="normal" in2="BackgroundImageFix" result="effect1_dropShadow_13_193"/>
<feBlend mode="normal" in="SourceGraphic" in2="effect1_dropShadow_13_193" result="shape"/>
</filter>
<filter id="filter2_d_13_193" x="-68" y="-84.5" width="679" height="704.5" filterUnits="userSpaceOnUse" color-interpolation-filters="sRGB">
<feFlood flood-opacity="0" result="BackgroundImageFix"/>
<feColorMatrix in="SourceAlpha" type="matrix" values="0 0 0 0 0 0 0 0 0 0 0 0 0 0 0 0 0 0 127 0" result="hardAlpha"/>
<feOffset dx="15" dy="15"/>
<feGaussianBlur stdDeviation="25"/>
<feComposite in2="hardAlpha" operator="out"/>
<feColorMatrix type="matrix" values="0 0 0 0 0 0 0 0 0 0 0 0 0 0 0 0 0 0 0.5 0"/>
<feBlend mode="normal" in2="BackgroundImageFix" result="effect1_dropShadow_13_193"/>
<feBlend mode="normal" in="SourceGraphic" in2="effect1_dropShadow_13_193" result="shape"/>
</filter>
<linearGradient id="paint0_linear_13_193" x1="56.283" y1="221.067" x2="256.13" y2="576.748" gradientUnits="userSpaceOnUse">
<stop stop-color="#4ED5FF"/>
<stop offset="1" stop-color="#086886"/>
</linearGradient>
<linearGradient id="paint1_linear_13_193" x1="189.585" y1="175.805" x2="423.009" y2="313.55" gradientUnits="userSpaceOnUse">
<stop stop-color="#606060"/>
<stop offset="1" stop-color="#404040"/>
</linearGradient>
<linearGradient id="paint2_linear_13_193" x1="100.968" y1="215.635" x2="276.17" y2="531.297" gradientUnits="userSpaceOnUse">
<stop stop-color="#ECFAFF"/>
<stop offset="1" stop-color="#D0D0D0"/>
</linearGradient>
<linearGradient id="paint3_linear_13_193" x1="152.92" y1="344.595" x2="197.226" y2="423.126" gradientUnits="userSpaceOnUse">
<stop stop-color="#565757"/>
<stop offset="1" stop-color="#3E3E3E"/>
</linearGradient>
<linearGradient id="paint4_linear_13_193" x1="100.968" y1="215.635" x2="276.17" y2="531.297" gradientUnits="userSpaceOnUse">
<stop stop-color="#606060"/>
<stop offset="1" stop-color="#404040"/>
</linearGradient>
<linearGradient id="paint5_linear_13_193" x1="140.479" y1="351.777" x2="163.528" y2="425.333" gradientUnits="userSpaceOnUse">
<stop stop-color="#565757"/>
<stop offset="1" stop-color="#3E3E3E"/>
</linearGradient>
<linearGradient id="paint6_linear_13_193" x1="178.646" y1="379.62" x2="179.474" y2="381.056" gradientUnits="userSpaceOnUse">
<stop stop-color="#565757"/>
<stop offset="1" stop-color="#3E3E3E"/>
</linearGradient>
<clipPath id="clip0_13_193">
<rect width="512" height="512" rx="256" fill="white"/>
</clipPath>
</defs>
</svg>
